<svg xmlns="http://www.w3.org/2000/svg" width="2584" height="1468" viewBox="0 0 2584 1468">
  <defs>
    <style>
      .cls-1 {
        stroke: #000;
        stroke-width: 1px;
        fill-rule: evenodd;
        opacity: 0.46;
      }
    </style>
  </defs>
  <path class="cls-1" d="M-137,1027C41.756,948.4,201.279,867.779,498,872s871.22,79.39,1188,59,577.38-99.438,766-95,420.56,30.855,502,52-95,761-95,761l-3096-28S-315.756,1105.6-137,1027Z"/>
  <path id="Shape_1_copy" data-name="Shape 1 copy" class="cls-1" d="M-260.71,99.857C-81.94,178.437,77.6,259.041,374.339,254.821s871.291-79.372,1188.091-58.987,577.43,99.416,766.06,94.979,420.59-30.848,502.04-51.988S2735.52-522,2735.52-522L-360.717-494.006S-439.479,21.276-260.71,99.857Z"/>
</svg>
